<svg viewBox="0 0 50.54 34.66"><path d="M46.16 0H4.39A4.44 4.44 0 000 4.4v25.86a4.44 4.44 0 004.39 4.4h41.77a4.43 4.43 0 004.38-4.4V4.4A4.43 4.43 0 0046.16 0zm1.72 30.26A1.75 1.75 0 0146.16 32H4.39a1.76 1.76 0 01-1.73-1.73V4.4a1.76 1.76 0 011.73-1.73h41.77a1.75 1.75 0 011.72 1.73zm-6-10.93H8A1.34 1.34 0 008 22h33.9a1.34 1.34 0 000-2.67zm-21.88 6H8A1.33 1.33 0 008 28h12a1.33 1.33 0 100-2.66zm11.31 0h-6a1.33 1.33 0 000 2.66h6a1.33 1.33 0 100-2.66zM8 16h6.65A1.34 1.34 0 0016 14.66V8a1.34 1.34 0 00-1.33-1.34H8A1.34 1.34 0 006.65 8v6.66A1.34 1.34 0 008 16zm1.31-6.67h4v4h-4zM41.9 6.66h-6.65a1.34 1.34 0 000 2.67h6.65a1.34 1.34 0 000-2.67z"/></svg>