<svg viewBox="0 0 42.91 37.06"><path d="M1.43 0A1.41 1.41 0 000 1.39a1.41 1.41 0 001.43 1.39h4.75c2.37 5.7 4.7 11.4 7.05 17.11l-2.16 5.05a1.39 1.39 0 00.13 1.31 1.48 1.48 0 001.2.62h23.83a1.39 1.39 0 100-2.78H14.54l1.24-2.87 23-1.78A1.45 1.45 0 0040 18.37l2.86-12a1.47 1.47 0 00-1.4-1.7H10L8.48.87A1.47 1.47 0 007.15 0zm9.74 7.41h28.51l-2.22 9.35-21.74 1.68zm6 20.39a4.63 4.63 0 104.77 4.63 4.72 4.72 0 00-4.78-4.63zm14.31 0a4.63 4.63 0 104.76 4.63 4.72 4.72 0 00-4.77-4.63zm-14.32 2.78a1.85 1.85 0 11-1.9 1.85 1.86 1.86 0 011.9-1.85zm14.31 0a1.85 1.85 0 11-1.91 1.85 1.85 1.85 0 011.91-1.85z"/></svg>