<svg class="svg-sprites" id="skin-sprite" xmlns="http://www.w3.org/2000/svg" xmlns:xlink="http://www.w3.org/1999/xlink">
    <symbol viewBox="0 0 39 39" id="z-box"><path d="M39 10v-.24l-.09-.09a1 1 0 00-.24-.14L19.89.19a.42.42 0 00-.37-.19h-.14a.15.15 0 00-.13.05h-.19L.56 9.38H.51l-.23.14-.09.09-.1.09a.19.19 0 000 .1 1 1 0 01.05.37v18.62a.86.86 0 00.51.83l18.55 9.29a.19.19 0 01.1 0 .15.15 0 01.13 0h.28a.16.16 0 00.14 0h.14l18.55-9.29a.86.86 0 00.51-.83V10.21A.4.4 0 0039 10zM19.52 2L36 10.21l-4.83 2.42L14.7 4.41zm-.92 34.54L1.9 28.18V11.7l16.7 8.36zm.92-18.06L3.06 10.21l5.47-2.73L25 15.74zm17.63 9.75l-16.7 8.36V20.06l5.89-2.93v7.34l.6-1.26.61.61.6-1.26.65.65.6-1.21.6.6.65-1.2.61.6.6-1.25.65.65V14l4.64-2.32z"/></symbol>
    <symbol viewBox="0 0 50.54 34.66" id="z-card"><path d="M46.16 0H4.39A4.44 4.44 0 000 4.4v25.86a4.44 4.44 0 004.39 4.4h41.77a4.43 4.43 0 004.38-4.4V4.4A4.43 4.43 0 0046.16 0zm1.72 30.26A1.75 1.75 0 0146.16 32H4.39a1.76 1.76 0 01-1.73-1.73V4.4a1.76 1.76 0 011.73-1.73h41.77a1.75 1.75 0 011.72 1.73zm-6-10.93H8A1.34 1.34 0 008 22h33.9a1.34 1.34 0 000-2.67zm-21.88 6H8A1.33 1.33 0 008 28h12a1.33 1.33 0 100-2.66zm11.31 0h-6a1.33 1.33 0 000 2.66h6a1.33 1.33 0 100-2.66zM8 16h6.65A1.34 1.34 0 0016 14.66V8a1.34 1.34 0 00-1.33-1.34H8A1.34 1.34 0 006.65 8v6.66A1.34 1.34 0 008 16zm1.31-6.67h4v4h-4zM41.9 6.66h-6.65a1.34 1.34 0 000 2.67h6.65a1.34 1.34 0 000-2.67z"/></symbol>
    <symbol viewBox="0 0 42.91 37.06" id="z-cart"><path d="M1.43 0A1.41 1.41 0 000 1.39a1.41 1.41 0 001.43 1.39h4.75c2.37 5.7 4.7 11.4 7.05 17.11l-2.16 5.05a1.39 1.39 0 00.13 1.31 1.48 1.48 0 001.2.62h23.83a1.39 1.39 0 100-2.78H14.54l1.24-2.87 23-1.78A1.45 1.45 0 0040 18.37l2.86-12a1.47 1.47 0 00-1.4-1.7H10L8.48.87A1.47 1.47 0 007.15 0zm9.74 7.41h28.51l-2.22 9.35-21.74 1.68zm6 20.39a4.63 4.63 0 104.77 4.63 4.72 4.72 0 00-4.78-4.63zm14.31 0a4.63 4.63 0 104.76 4.63 4.72 4.72 0 00-4.77-4.63zm-14.32 2.78a1.85 1.85 0 11-1.9 1.85 1.86 1.86 0 011.9-1.85zm14.31 0a1.85 1.85 0 11-1.91 1.85 1.85 1.85 0 011.91-1.85z"/></symbol>
    <symbol viewBox="0 0 60 30" id="z-mail"><path d="M16.42 0v10.41H19V4.12l11.72 10L19 25.6v-8.69h-2.58v1.88h-8v2.6h8V30H60V0zm4.84 2.6h33.92L38.24 17.1zm-.34 24.8l11.82-11.57 5.5 4.7 5.6-4.8L55.55 27.4zm36.47-1.83L45.83 14l11.56-9.9zM14.76 4.83H2.28v2.6h12.48zM24.6 12H0v2.6h24.6zM0 26.88h12.16v-2.6H0z"/></symbol>
    <symbol viewBox="0 0 31.91 31.91" id="z-search"><path d="M31.42 29.26l-7-6.54a14 14 0 10-2.22 2.11l7.09 6.66a1.53 1.53 0 102.09-2.23zM3.06 13.84a10.79 10.79 0 1110.78 10.79A10.78 10.78 0 013.06 13.84z"/></symbol>
</svg>